<?xml version="1.0"?>
<mxfile host="Electron" modified="2022-07-29T00:39:05.555Z" agent="5.0 (X11; Linux x86_64) AppleWebKit/537.36 (KHTML, like Gecko) draw.io/19.0.2 Chrome/102.0.5005.63 Electron/19.0.3 Safari/537.36" etag="CXYyKFIo_sh_8HhIa8K9" version="19.0.2">
  <diagram id="ppIadrZdOif0ZSLgG1dX" name="Page-1">
    <mxGraphModel dx="2" dy="1" grid="1" gridSize="10" guides="0" tooltips="1" connect="1" arrows="1" fold="1" page="1" pageScale="1" pageWidth="850" pageHeight="1100" math="0" shadow="0">
      <root>
        <mxCell id="0"/>
        <mxCell id="1" parent="0"/>
        <mxCell id="ha3elfTL5Iz4tBDEpyDO-4" value="Running" style="text;html=1;align=center;verticalAlign=middle;resizable=0;points=[];autosize=1;fontFamily=mono;strokeColor=default;fillColor=default;" parent="1" vertex="1">
          <mxGeometry x="130" y="100" width="70" height="20" as="geometry"/>
        </mxCell>
        <mxCell id="ha3elfTL5Iz4tBDEpyDO-5" value="Idle" style="text;html=1;align=center;verticalAlign=middle;resizable=0;points=[];autosize=1;fontFamily=mono;fillColor=default;strokeColor=default;" parent="1" vertex="1">
          <mxGeometry x="120" y="60" width="40" height="20" as="geometry"/>
        </mxCell>
        <mxCell id="ha3elfTL5Iz4tBDEpyDO-6" value="ItlbWait" style="text;html=1;align=center;verticalAlign=middle;resizable=0;points=[];autosize=1;fontFamily=mono;strokeColor=default;fillColor=default;" parent="1" vertex="1">
          <mxGeometry x="120" y="270" width="70" height="20" as="geometry"/>
        </mxCell>
        <mxCell id="ha3elfTL5Iz4tBDEpyDO-10" value="" style="endArrow=classic;html=1;rounded=0;fontFamily=mono;" parent="1" source="ha3elfTL5Iz4tBDEpyDO-4" target="ha3elfTL5Iz4tBDEpyDO-34" edge="1">
          <mxGeometry width="50" height="50" relative="1" as="geometry">
            <mxPoint x="390" y="140" as="sourcePoint"/>
            <mxPoint x="165" y="160" as="targetPoint"/>
          </mxGeometry>
        </mxCell>
        <mxCell id="ha3elfTL5Iz4tBDEpyDO-11" value="" style="endArrow=classic;html=1;rounded=0;fontFamily=mono;" parent="1" source="ha3elfTL5Iz4tBDEpyDO-42" target="ha3elfTL5Iz4tBDEpyDO-6" edge="1">
          <mxGeometry width="50" height="50" relative="1" as="geometry">
            <mxPoint x="165" y="250" as="sourcePoint"/>
            <mxPoint x="178.72067702077481" y="190.01364510050428" as="targetPoint"/>
          </mxGeometry>
        </mxCell>
        <mxCell id="ha3elfTL5Iz4tBDEpyDO-14" value="NoGoodAddr" style="text;html=1;align=center;verticalAlign=middle;resizable=0;points=[];autosize=1;fontFamily=mono;strokeColor=default;fillColor=default;" parent="1" vertex="1">
          <mxGeometry x="80" y="380" width="90" height="20" as="geometry"/>
        </mxCell>
        <mxCell id="ha3elfTL5Iz4tBDEpyDO-15" value="TrapPending" style="text;html=1;align=center;verticalAlign=middle;resizable=0;points=[];autosize=1;fontFamily=mono;strokeColor=default;fillColor=default;" parent="1" vertex="1">
          <mxGeometry x="180" y="380" width="90" height="20" as="geometry"/>
        </mxCell>
        <mxCell id="ha3elfTL5Iz4tBDEpyDO-17" value="IcacheWaitRetry" style="text;html=1;align=center;verticalAlign=middle;resizable=0;points=[];autosize=1;fontFamily=mono;strokeColor=default;fillColor=default;" parent="1" vertex="1">
          <mxGeometry x="370" y="320" width="120" height="20" as="geometry"/>
        </mxCell>
        <mxCell id="ha3elfTL5Iz4tBDEpyDO-18" value="" style="endArrow=classic;html=1;fontFamily=mono;curved=1;" parent="1" source="ha3elfTL5Iz4tBDEpyDO-44" target="ha3elfTL5Iz4tBDEpyDO-17" edge="1">
          <mxGeometry width="50" height="50" relative="1" as="geometry">
            <mxPoint x="310" y="290" as="sourcePoint"/>
            <mxPoint x="310" y="250" as="targetPoint"/>
            <Array as="points">
              <mxPoint x="370" y="290"/>
            </Array>
          </mxGeometry>
        </mxCell>
        <mxCell id="ha3elfTL5Iz4tBDEpyDO-19" value="" style="endArrow=classic;html=1;fontFamily=mono;curved=1;" parent="1" source="ha3elfTL5Iz4tBDEpyDO-17" target="ha3elfTL5Iz4tBDEpyDO-44" edge="1">
          <mxGeometry width="50" height="50" relative="1" as="geometry">
            <mxPoint x="320" y="300" as="sourcePoint"/>
            <mxPoint x="320" y="319.47368421052624" as="targetPoint"/>
            <Array as="points">
              <mxPoint x="390" y="370"/>
            </Array>
          </mxGeometry>
        </mxCell>
        <mxCell id="ha3elfTL5Iz4tBDEpyDO-22" value="" style="endArrow=classic;html=1;rounded=0;fontFamily=mono;" parent="1" source="ha3elfTL5Iz4tBDEpyDO-43" target="ha3elfTL5Iz4tBDEpyDO-14" edge="1">
          <mxGeometry width="50" height="50" relative="1" as="geometry">
            <mxPoint x="168.07692307692298" y="340" as="sourcePoint"/>
            <mxPoint x="250" y="190" as="targetPoint"/>
          </mxGeometry>
        </mxCell>
        <mxCell id="ha3elfTL5Iz4tBDEpyDO-23" value="" style="endArrow=classic;html=1;rounded=0;fontFamily=mono;" parent="1" source="ha3elfTL5Iz4tBDEpyDO-43" target="ha3elfTL5Iz4tBDEpyDO-15" edge="1">
          <mxGeometry width="50" height="50" relative="1" as="geometry">
            <mxPoint x="171.47058823529414" y="340" as="sourcePoint"/>
            <mxPoint x="159.61538461538458" y="390" as="targetPoint"/>
          </mxGeometry>
        </mxCell>
        <mxCell id="ha3elfTL5Iz4tBDEpyDO-24" value="" style="endArrow=classic;html=1;fontFamily=mono;curved=1;" parent="1" source="ha3elfTL5Iz4tBDEpyDO-43" target="ha3elfTL5Iz4tBDEpyDO-44" edge="1">
          <mxGeometry width="50" height="50" relative="1" as="geometry">
            <mxPoint x="200" y="320.83333333333337" as="sourcePoint"/>
            <mxPoint x="270" y="309.3478260869565" as="targetPoint"/>
            <Array as="points">
              <mxPoint x="240" y="360"/>
            </Array>
          </mxGeometry>
        </mxCell>
        <mxCell id="ha3elfTL5Iz4tBDEpyDO-27" value="y" style="endArrow=classic;html=1;rounded=0;fontFamily=mono;" parent="1" source="ha3elfTL5Iz4tBDEpyDO-34" target="ha3elfTL5Iz4tBDEpyDO-42" edge="1">
          <mxGeometry width="50" height="50" relative="1" as="geometry">
            <mxPoint x="165" y="190" as="sourcePoint"/>
            <mxPoint x="165" y="220" as="targetPoint"/>
          </mxGeometry>
        </mxCell>
        <mxCell id="ha3elfTL5Iz4tBDEpyDO-28" value="" style="endArrow=classic;html=1;rounded=0;fontFamily=mono;" parent="1" source="ha3elfTL5Iz4tBDEpyDO-6" target="ha3elfTL5Iz4tBDEpyDO-43" edge="1">
          <mxGeometry width="50" height="50" relative="1" as="geometry">
            <mxPoint x="175" y="150" as="sourcePoint"/>
            <mxPoint x="171.66666666666663" y="310" as="targetPoint"/>
          </mxGeometry>
        </mxCell>
        <mxCell id="ha3elfTL5Iz4tBDEpyDO-30" value="IcacheWaitResponse" style="text;html=1;align=center;verticalAlign=middle;resizable=0;points=[];autosize=1;fontFamily=mono;strokeColor=default;fillColor=default;" parent="1" vertex="1">
          <mxGeometry x="260" y="270" width="150" height="20" as="geometry"/>
        </mxCell>
        <mxCell id="ha3elfTL5Iz4tBDEpyDO-31" value="" style="endArrow=classic;html=1;rounded=0;fontFamily=mono;" parent="1" source="ha3elfTL5Iz4tBDEpyDO-44" target="ha3elfTL5Iz4tBDEpyDO-30" edge="1">
          <mxGeometry width="50" height="50" relative="1" as="geometry">
            <mxPoint x="299.0909090909091" y="290" as="sourcePoint"/>
            <mxPoint x="280" y="319.16666666666663" as="targetPoint"/>
          </mxGeometry>
        </mxCell>
        <mxCell id="ha3elfTL5Iz4tBDEpyDO-33" value="stall" style="rhombus;whiteSpace=wrap;html=1;fontFamily=mono;" parent="1" vertex="1">
          <mxGeometry x="310" y="150" width="50" height="30" as="geometry"/>
        </mxCell>
        <mxCell id="ha3elfTL5Iz4tBDEpyDO-34" value="fetch" style="rhombus;whiteSpace=wrap;html=1;fontFamily=mono;" parent="1" vertex="1">
          <mxGeometry x="130" y="150" width="50" height="30" as="geometry"/>
        </mxCell>
        <mxCell id="ha3elfTL5Iz4tBDEpyDO-35" value="" style="endArrow=classic;html=1;rounded=0;fontFamily=mono;startArrow=none;" parent="1" source="ha3elfTL5Iz4tBDEpyDO-45" target="ha3elfTL5Iz4tBDEpyDO-33" edge="1">
          <mxGeometry width="50" height="50" relative="1" as="geometry">
            <mxPoint x="308" y="300" as="sourcePoint"/>
            <mxPoint x="318" y="250" as="targetPoint"/>
          </mxGeometry>
        </mxCell>
        <mxCell id="ha3elfTL5Iz4tBDEpyDO-36" value="IcacheAccessComplete" style="text;html=1;align=center;verticalAlign=middle;resizable=0;points=[];autosize=1;fontFamily=mono;strokeColor=default;fillColor=default;" parent="1" vertex="1">
          <mxGeometry x="250" y="100" width="160" height="20" as="geometry"/>
        </mxCell>
        <mxCell id="ha3elfTL5Iz4tBDEpyDO-37" value="Blocked" style="text;html=1;align=center;verticalAlign=middle;resizable=0;points=[];autosize=1;fontFamily=mono;strokeColor=default;fillColor=default;" parent="1" vertex="1">
          <mxGeometry x="390" y="150" width="70" height="20" as="geometry"/>
        </mxCell>
        <mxCell id="ha3elfTL5Iz4tBDEpyDO-38" value="y" style="endArrow=classic;html=1;rounded=0;fontFamily=mono;" parent="1" source="ha3elfTL5Iz4tBDEpyDO-33" target="ha3elfTL5Iz4tBDEpyDO-37" edge="1">
          <mxGeometry width="50" height="50" relative="1" as="geometry">
            <mxPoint x="318.8888888888889" y="230" as="sourcePoint"/>
            <mxPoint x="316.5625" y="209.0625" as="targetPoint"/>
          </mxGeometry>
        </mxCell>
        <mxCell id="ha3elfTL5Iz4tBDEpyDO-39" value="n" style="endArrow=classic;html=1;rounded=0;fontFamily=mono;" parent="1" source="ha3elfTL5Iz4tBDEpyDO-33" target="ha3elfTL5Iz4tBDEpyDO-36" edge="1">
          <mxGeometry width="50" height="50" relative="1" as="geometry">
            <mxPoint x="338.37662337662346" y="195.97402597402595" as="sourcePoint"/>
            <mxPoint x="400" y="198.54166666666663" as="targetPoint"/>
          </mxGeometry>
        </mxCell>
        <mxCell id="ha3elfTL5Iz4tBDEpyDO-41" value="" style="endArrow=classic;html=1;fontFamily=mono;curved=1;" parent="1" source="ha3elfTL5Iz4tBDEpyDO-36" target="ha3elfTL5Iz4tBDEpyDO-4" edge="1">
          <mxGeometry width="50" height="50" relative="1" as="geometry">
            <mxPoint x="400" y="240" as="sourcePoint"/>
            <mxPoint x="450" y="190" as="targetPoint"/>
            <Array as="points">
              <mxPoint x="220" y="100"/>
            </Array>
          </mxGeometry>
        </mxCell>
        <mxCell id="ha3elfTL5Iz4tBDEpyDO-42" value="&lt;span style=&quot;&quot;&gt;itlb&lt;br&gt;&lt;/span&gt;&lt;span style=&quot;&quot;&gt;req&lt;/span&gt;" style="text;html=1;align=center;verticalAlign=middle;resizable=0;points=[];autosize=1;strokeColor=none;fillColor=none;fontFamily=mono;" parent="1" vertex="1">
          <mxGeometry x="130" y="210" width="40" height="30" as="geometry"/>
        </mxCell>
        <mxCell id="ha3elfTL5Iz4tBDEpyDO-43" value="itlb&lt;br&gt;resp" style="text;html=1;align=center;verticalAlign=middle;resizable=0;points=[];autosize=1;strokeColor=none;fillColor=none;fontFamily=mono;" parent="1" vertex="1">
          <mxGeometry x="150" y="320" width="40" height="30" as="geometry"/>
        </mxCell>
        <mxCell id="ha3elfTL5Iz4tBDEpyDO-44" value="icache&lt;br&gt;req" style="text;html=1;align=center;verticalAlign=middle;resizable=0;points=[];autosize=1;strokeColor=none;fillColor=none;fontFamily=mono;" parent="1" vertex="1">
          <mxGeometry x="290" y="320" width="60" height="30" as="geometry"/>
        </mxCell>
        <mxCell id="ha3elfTL5Iz4tBDEpyDO-45" value="icache&lt;br&gt;resp" style="text;html=1;align=center;verticalAlign=middle;resizable=0;points=[];autosize=1;strokeColor=none;fillColor=none;fontFamily=mono;" parent="1" vertex="1">
          <mxGeometry x="310" y="210" width="60" height="30" as="geometry"/>
        </mxCell>
        <mxCell id="ha3elfTL5Iz4tBDEpyDO-46" value="" style="endArrow=classic;html=1;rounded=0;fontFamily=mono;endFill=1;" parent="1" source="ha3elfTL5Iz4tBDEpyDO-30" target="ha3elfTL5Iz4tBDEpyDO-45" edge="1">
          <mxGeometry width="50" height="50" relative="1" as="geometry">
            <mxPoint x="310.76923076923083" y="240" as="sourcePoint"/>
            <mxPoint x="313.8970588235294" y="199.33823529411768" as="targetPoint"/>
          </mxGeometry>
        </mxCell>
        <mxCell id="ha3elfTL5Iz4tBDEpyDO-47" value="" style="endArrow=classic;html=1;rounded=0;fontFamily=mono;fillColor=#d5e8d4;strokeColor=#82b366;" parent="1" source="ha3elfTL5Iz4tBDEpyDO-4" target="ha3elfTL5Iz4tBDEpyDO-50" edge="1">
          <mxGeometry width="50" height="50" relative="1" as="geometry">
            <mxPoint x="103.18181818181813" y="120" as="sourcePoint"/>
            <mxPoint x="105" y="160" as="targetPoint"/>
          </mxGeometry>
        </mxCell>
        <mxCell id="ha3elfTL5Iz4tBDEpyDO-48" value="" style="endArrow=classic;html=1;rounded=0;fontFamily=mono;fillColor=#d5e8d4;strokeColor=#82b366;" parent="1" source="ha3elfTL5Iz4tBDEpyDO-51" target="ha3elfTL5Iz4tBDEpyDO-6" edge="1">
          <mxGeometry width="50" height="50" relative="1" as="geometry">
            <mxPoint x="105" y="250" as="sourcePoint"/>
            <mxPoint x="94.09090909090912" y="270" as="targetPoint"/>
          </mxGeometry>
        </mxCell>
        <mxCell id="ha3elfTL5Iz4tBDEpyDO-49" value="y" style="endArrow=classic;html=1;rounded=0;fontFamily=mono;fillColor=#d5e8d4;strokeColor=#82b366;" parent="1" source="ha3elfTL5Iz4tBDEpyDO-50" target="ha3elfTL5Iz4tBDEpyDO-51" edge="1">
          <mxGeometry width="50" height="50" relative="1" as="geometry">
            <mxPoint x="105" y="190" as="sourcePoint"/>
            <mxPoint x="105" y="220" as="targetPoint"/>
          </mxGeometry>
        </mxCell>
        <mxCell id="ha3elfTL5Iz4tBDEpyDO-50" value="ufetch" style="rhombus;whiteSpace=wrap;html=1;fontFamily=mono;fillColor=#d5e8d4;strokeColor=#82b366;" parent="1" vertex="1">
          <mxGeometry x="60" y="150" width="60" height="30" as="geometry"/>
        </mxCell>
        <mxCell id="ha3elfTL5Iz4tBDEpyDO-51" value="&lt;span style=&quot;&quot;&gt;itlb&lt;br&gt;&lt;/span&gt;&lt;span style=&quot;&quot;&gt;req&lt;/span&gt;" style="text;html=1;align=center;verticalAlign=middle;resizable=0;points=[];autosize=1;fontFamily=mono;" parent="1" vertex="1">
          <mxGeometry x="70" y="210" width="40" height="30" as="geometry"/>
        </mxCell>
        <mxCell id="ha3elfTL5Iz4tBDEpyDO-52" value="n" style="endArrow=classic;html=1;fontFamily=mono;curved=1;" parent="1" source="ha3elfTL5Iz4tBDEpyDO-34" target="ha3elfTL5Iz4tBDEpyDO-4" edge="1">
          <mxGeometry width="50" height="50" relative="1" as="geometry">
            <mxPoint x="230" y="230" as="sourcePoint"/>
            <mxPoint x="280" y="180" as="targetPoint"/>
            <Array as="points">
              <mxPoint x="200" y="165"/>
              <mxPoint x="210" y="130"/>
            </Array>
          </mxGeometry>
        </mxCell>
        <mxCell id="ha3elfTL5Iz4tBDEpyDO-53" value="n" style="endArrow=classic;html=1;fontFamily=mono;curved=1;fillColor=#d5e8d4;strokeColor=#82b366;" parent="1" source="ha3elfTL5Iz4tBDEpyDO-50" target="ha3elfTL5Iz4tBDEpyDO-4" edge="1">
          <mxGeometry x="-0.1859" y="-2" width="50" height="50" relative="1" as="geometry">
            <mxPoint x="230" y="230" as="sourcePoint"/>
            <mxPoint x="280" y="180" as="targetPoint"/>
            <Array as="points">
              <mxPoint x="40" y="160"/>
              <mxPoint x="60" y="130"/>
            </Array>
            <mxPoint as="offset"/>
          </mxGeometry>
        </mxCell>
        <mxCell id="ha3elfTL5Iz4tBDEpyDO-54" value="ucache&lt;br&gt;req" style="text;html=1;align=center;verticalAlign=middle;resizable=0;points=[];autosize=1;fontFamily=mono;" parent="1" vertex="1">
          <mxGeometry x="520" y="320" width="60" height="30" as="geometry"/>
        </mxCell>
        <mxCell id="ha3elfTL5Iz4tBDEpyDO-55" value="IcacheWaitResponse" style="text;html=1;align=center;verticalAlign=middle;resizable=0;points=[];autosize=1;fontFamily=mono;strokeColor=#82b366;fillColor=#d5e8d4;" parent="1" vertex="1">
          <mxGeometry x="490" y="270" width="150" height="20" as="geometry"/>
        </mxCell>
        <mxCell id="ha3elfTL5Iz4tBDEpyDO-56" value="" style="endArrow=classic;html=1;rounded=0;fontFamily=mono;fillColor=#d5e8d4;strokeColor=#82b366;" parent="1" source="ha3elfTL5Iz4tBDEpyDO-54" target="ha3elfTL5Iz4tBDEpyDO-55" edge="1">
          <mxGeometry width="50" height="50" relative="1" as="geometry">
            <mxPoint x="554.0909090909091" y="320" as="sourcePoint"/>
            <mxPoint x="510" y="319.16666666666663" as="targetPoint"/>
          </mxGeometry>
        </mxCell>
        <mxCell id="ha3elfTL5Iz4tBDEpyDO-57" value="stall" style="rhombus;whiteSpace=wrap;html=1;fontFamily=mono;fillColor=#d5e8d4;strokeColor=#82b366;" parent="1" vertex="1">
          <mxGeometry x="540" y="150" width="50" height="30" as="geometry"/>
        </mxCell>
        <mxCell id="ha3elfTL5Iz4tBDEpyDO-58" value="" style="endArrow=classic;html=1;rounded=0;fontFamily=mono;startArrow=none;fillColor=#d5e8d4;strokeColor=#82b366;" parent="1" source="ha3elfTL5Iz4tBDEpyDO-62" target="ha3elfTL5Iz4tBDEpyDO-57" edge="1">
          <mxGeometry width="50" height="50" relative="1" as="geometry">
            <mxPoint x="538" y="300" as="sourcePoint"/>
            <mxPoint x="548" y="250" as="targetPoint"/>
          </mxGeometry>
        </mxCell>
        <mxCell id="ha3elfTL5Iz4tBDEpyDO-59" value="Blocked" style="text;html=1;align=center;verticalAlign=middle;resizable=0;points=[];autosize=1;fontFamily=mono;strokeColor=#82b366;fillColor=#d5e8d4;" parent="1" vertex="1">
          <mxGeometry x="620" y="150" width="70" height="20" as="geometry"/>
        </mxCell>
        <mxCell id="ha3elfTL5Iz4tBDEpyDO-60" value="y" style="endArrow=classic;html=1;rounded=0;fontFamily=mono;fillColor=#d5e8d4;strokeColor=#82b366;" parent="1" source="ha3elfTL5Iz4tBDEpyDO-57" target="ha3elfTL5Iz4tBDEpyDO-59" edge="1">
          <mxGeometry width="50" height="50" relative="1" as="geometry">
            <mxPoint x="548.8888888888889" y="230" as="sourcePoint"/>
            <mxPoint x="546.5625" y="209.0625" as="targetPoint"/>
          </mxGeometry>
        </mxCell>
        <mxCell id="ha3elfTL5Iz4tBDEpyDO-61" value="n" style="endArrow=classic;html=1;rounded=0;fontFamily=mono;fillColor=#d5e8d4;strokeColor=#82b366;" parent="1" source="ha3elfTL5Iz4tBDEpyDO-57" target="ha3elfTL5Iz4tBDEpyDO-65" edge="1">
          <mxGeometry width="50" height="50" relative="1" as="geometry">
            <mxPoint x="568.3766233766235" y="195.97402597402595" as="sourcePoint"/>
            <mxPoint x="560.9090909090909" y="120" as="targetPoint"/>
          </mxGeometry>
        </mxCell>
        <mxCell id="ha3elfTL5Iz4tBDEpyDO-62" value="ucache&lt;br&gt;resp" style="text;html=1;align=center;verticalAlign=middle;resizable=0;points=[];autosize=1;fontFamily=mono;" parent="1" vertex="1">
          <mxGeometry x="540" y="210" width="60" height="30" as="geometry"/>
        </mxCell>
        <mxCell id="ha3elfTL5Iz4tBDEpyDO-63" value="" style="endArrow=classic;html=1;rounded=0;fontFamily=mono;endFill=1;fillColor=#d5e8d4;strokeColor=#82b366;" parent="1" source="ha3elfTL5Iz4tBDEpyDO-55" target="ha3elfTL5Iz4tBDEpyDO-62" edge="1">
          <mxGeometry width="50" height="50" relative="1" as="geometry">
            <mxPoint x="540.7692307692308" y="240" as="sourcePoint"/>
            <mxPoint x="543.8970588235294" y="199.33823529411768" as="targetPoint"/>
          </mxGeometry>
        </mxCell>
        <mxCell id="ha3elfTL5Iz4tBDEpyDO-64" value="" style="endArrow=classic;html=1;fontFamily=mono;curved=1;fillColor=#d5e8d4;strokeColor=#82b366;" parent="1" source="ha3elfTL5Iz4tBDEpyDO-43" target="ha3elfTL5Iz4tBDEpyDO-54" edge="1">
          <mxGeometry width="50" height="50" relative="1" as="geometry">
            <mxPoint x="200" y="352.1428571428572" as="sourcePoint"/>
            <mxPoint x="300" y="354.375" as="targetPoint"/>
            <Array as="points">
              <mxPoint x="360" y="400"/>
            </Array>
          </mxGeometry>
        </mxCell>
        <mxCell id="ha3elfTL5Iz4tBDEpyDO-65" value="UcacheAccessComplete" style="text;html=1;align=center;verticalAlign=middle;resizable=0;points=[];autosize=1;fontFamily=mono;strokeColor=#82b366;fillColor=#d5e8d4;" parent="1" vertex="1">
          <mxGeometry x="480" y="100" width="160" height="20" as="geometry"/>
        </mxCell>
        <mxCell id="ha3elfTL5Iz4tBDEpyDO-66" value="" style="endArrow=classic;html=1;fontFamily=mono;curved=1;" parent="1" source="ha3elfTL5Iz4tBDEpyDO-5" target="ha3elfTL5Iz4tBDEpyDO-5" edge="1">
          <mxGeometry width="50" height="50" relative="1" as="geometry">
            <mxPoint x="250" y="230" as="sourcePoint"/>
            <mxPoint x="300" y="180" as="targetPoint"/>
            <Array as="points">
              <mxPoint x="100" y="70"/>
            </Array>
          </mxGeometry>
        </mxCell>
        <mxCell id="ha3elfTL5Iz4tBDEpyDO-67" value="" style="endArrow=classic;html=1;fontFamily=mono;curved=1;fillColor=#d5e8d4;strokeColor=#82b366;" parent="1" source="ha3elfTL5Iz4tBDEpyDO-65" target="ha3elfTL5Iz4tBDEpyDO-4" edge="1">
          <mxGeometry width="50" height="50" relative="1" as="geometry">
            <mxPoint x="330" y="230" as="sourcePoint"/>
            <mxPoint x="380" y="180" as="targetPoint"/>
            <Array as="points">
              <mxPoint x="360" y="40"/>
            </Array>
          </mxGeometry>
        </mxCell>
        <mxCell id="ha3elfTL5Iz4tBDEpyDO-71" value="UcacheWaitRetry" style="text;html=1;align=center;verticalAlign=middle;resizable=0;points=[];autosize=1;fontFamily=mono;strokeColor=#82b366;fillColor=#d5e8d4;" parent="1" vertex="1">
          <mxGeometry x="600.33" y="320" width="120" height="20" as="geometry"/>
        </mxCell>
        <mxCell id="ha3elfTL5Iz4tBDEpyDO-72" value="" style="endArrow=classic;html=1;fontFamily=mono;curved=1;fillColor=#d5e8d4;strokeColor=#82b366;" parent="1" source="ha3elfTL5Iz4tBDEpyDO-71" target="ha3elfTL5Iz4tBDEpyDO-54" edge="1">
          <mxGeometry width="50" height="50" relative="1" as="geometry">
            <mxPoint x="550.33" y="300" as="sourcePoint"/>
            <mxPoint x="580.33" y="350" as="targetPoint"/>
            <Array as="points">
              <mxPoint x="620.33" y="370"/>
            </Array>
          </mxGeometry>
        </mxCell>
        <mxCell id="ha3elfTL5Iz4tBDEpyDO-73" value="" style="endArrow=classic;html=1;fontFamily=mono;curved=1;fillColor=#d5e8d4;strokeColor=#82b366;" parent="1" source="ha3elfTL5Iz4tBDEpyDO-54" target="ha3elfTL5Iz4tBDEpyDO-71" edge="1">
          <mxGeometry width="50" height="50" relative="1" as="geometry">
            <mxPoint x="566.9966666666668" y="320" as="sourcePoint"/>
            <mxPoint x="540.33" y="250" as="targetPoint"/>
            <Array as="points">
              <mxPoint x="600.33" y="290"/>
            </Array>
          </mxGeometry>
        </mxCell>
      </root>
    </mxGraphModel>
  </diagram>
</mxfile>
